<?xml version="1.0" encoding="UTF-8"?>
<svg width="16" height="15" xmlns="http://www.w3.org/2000/svg"><g fill="#009DE0" fill-rule="evenodd"><path d="M3.123 13.226l7.24.008c.744 0 1.348-.588 1.348-1.314L11.7 8.445c-.001-.149.123-.269.251-.269h.294c.14 0 .252.125.252.27v3.482c0 1.145-.951 2.072-2.124 2.072l-7.336-.008c-1.12 0-2.026-.885-2.026-1.976L1 4.871c0-1.144.951-2.072 2.124-2.072l3.09-.012c.146 0 .264.12.264.263V3.3a.26.26 0 01-.262.264H3.134c-.744 0-1.348.589-1.348 1.315l-.01 7.032c0 .725.603 1.314 1.347 1.314h0z" stroke="#009DE0" stroke-width=".5"/><g transform="translate(6)"><path d="M8.177.302l.829.828-8 8a.594.594 0 01-.832.003.592.592 0 01.003-.831l8-8z"/><rect x="3" width="6.2" height="1.3" rx=".65"/><rect transform="rotate(90 8.65 3)" x="5.65" y="2.35" width="6" height="1.3" rx=".65"/></g></g></svg>